<svg width="194" height="453" viewBox="0 0 194 453" fill="none" xmlns="http://www.w3.org/2000/svg">
<g clip-path="url(#clip0)">
<path d="M55.3447 71.179C87.6585 12.8452 151.111 -2.47476 193.413 1.06062" stroke="#2B2A2A" stroke-miterlimit="10" stroke-linecap="round"/>
<path d="M54.7571 118.907C70.0327 59.9836 100.584 21.0944 191.062 16.3806" stroke="#2B2A2A" stroke-miterlimit="10" stroke-linecap="round"/>
<path d="M33.6062 117.728C33.6062 105.001 48.8818 63.519 55.9321 71.7682C60.0447 76.5999 48.8818 83.5528 43.0066 116.55" stroke="#2B2A2A" stroke-miterlimit="10" stroke-linecap="round"/>
<path d="M30.0813 118.907L38.3066 116.55L57.1073 118.907L53.5822 151.903L34.7815 148.368L26.5562 150.725L30.0813 118.907Z" stroke="#2B2A2A" stroke-miterlimit="10" stroke-linecap="round"/>
<path d="M34.7812 148.368L38.3064 116.55" stroke="#2B2A2A" stroke-miterlimit="10" stroke-linecap="round"/>
<path d="M28.906 149.547L24.2058 190.793" stroke="#2B2A2A" stroke-miterlimit="10" stroke-linecap="round"/>
<path d="M33.6062 148.368L28.906 190.793" stroke="#2B2A2A" stroke-miterlimit="10" stroke-linecap="round"/>
<path d="M51.2319 151.903L48.8818 176.651" stroke="#2B2A2A" stroke-miterlimit="10" stroke-linecap="round"/>
<path d="M48.8818 150.725C48.8818 150.725 48.8818 158.974 47.7068 161.331C46.5317 163.688 43.0066 164.867 43.0066 167.223C43.0066 170.759 43.0066 179.008 43.0066 179.008" stroke="#2B2A2A" stroke-miterlimit="10" stroke-linecap="round"/>
<path d="M33.6062 189.614L37.1313 156.617C37.1313 156.617 43.0066 154.26 43.0066 156.617C43.0066 158.974 35.9563 166.045 35.9563 166.045" stroke="#2B2A2A" stroke-miterlimit="10" stroke-linecap="round"/>
<path d="M68.8578 276.82C71.2079 276.82 78.8457 272.696 80.6082 263.857C83.1933 251.012 73.558 184.9 60.6325 179.008C55.8148 176.769 45.3569 175.473 38.8941 181.954C38.3066 182.543 47.707 187.257 47.707 215.54C47.707 215.54 57.1073 227.325 59.4574 234.396C61.8075 241.466 68.8578 273.285 68.8578 279.177C68.8578 285.069 68.8578 288.605 70.0328 292.14C71.2079 295.676 78.9632 306.282 78.2581 318.066C77.0831 339.279 103.522 363.908 107.634 382.882C111.159 399.38 105.284 430.02 102.934 434.734C100.584 439.448 100.584 452.411 100.584 452.411" stroke="#2B2A2A" stroke-miterlimit="10" stroke-linecap="round"/>
<path d="M40.6566 212.005C39.4815 201.399 34.1938 192.56 31.8437 191.382C29.4936 190.203 18.9182 191.382 18.9182 191.382" stroke="#2B2A2A" stroke-miterlimit="10" stroke-linecap="round"/>
<path d="M15.9807 339.279C12.4556 332.208 12.4556 321.602 12.4556 314.531C12.4556 307.46 3.0552 287.544 3.0552 282.713C3.0552 277.999 1.88015 241.466 1.88015 230.86C1.88015 221.197 0.705107 213.183 1.88015 208.47C1.99766 207.88 3.0552 207.291 4.23024 208.47" stroke="#2B2A2A" stroke-miterlimit="10" stroke-linecap="round"/>
<path d="M45.3568 397.023C45.3568 421.771 40.6566 432.377 39.4815 439.448C38.3065 446.283 41.2441 448.286 41.2441 448.286" stroke="#2B2A2A" stroke-miterlimit="10" stroke-linecap="round"/>
<path d="M12.4556 319.245C12.4556 319.245 8.93044 351.063 18.3308 360.491C24.7936 366.972 42.4192 400.323 41.8317 426.485" stroke="#2B2A2A" stroke-miterlimit="10" stroke-linecap="round"/>
<path d="M40.6567 306.282C40.6567 306.282 46.5319 279.177 43.0068 266.214C39.4816 253.251 43.0068 237.931 40.6567 232.039C38.3066 226.146 31.6088 215.187 32.4314 214.362C33.6064 213.183 36.779 212.476 38.3066 213.183C40.6567 214.362 43.0068 216.719 43.0068 222.611C43.0068 228.503 39.4816 229.682 39.4816 229.682" stroke="#2B2A2A" stroke-miterlimit="10" stroke-linecap="round"/>
<path d="M38.3064 213.183C38.3064 213.183 44.1816 210.826 47.7068 215.54" stroke="#2B2A2A" stroke-miterlimit="10" stroke-linecap="round"/>
<path d="M6.58036 209.648C6.58036 209.648 10.8105 203.874 7.75541 193.15C5.40531 184.9 4.11276 185.725 1.88018 186.079C1.05765 186.197 0.235114 186.315 0.705132 189.614C1.52766 196.096 5.0528 208.47 6.58036 213.183C8.93045 220.254 12.4556 230.86 12.4556 240.288C12.4556 249.716 12.4556 274.463 15.9807 280.356C19.5059 286.248 23.031 313.352 23.031 313.352" stroke="#2B2A2A" stroke-miterlimit="10" stroke-linecap="round"/>
<path d="M4.23022 186.079C4.23022 186.079 15.0406 181.836 24.206 200.22C26.5561 204.934 31.2563 227.325 33.6064 235.574C35.9564 243.823 41.3617 252.19 41.3617 252.19" stroke="#2B2A2A" stroke-miterlimit="10" stroke-linecap="round"/>
<path d="M31.8438 191.382L39.4815 183.722" stroke="#2B2A2A" stroke-width="1.0078" stroke-miterlimit="10" stroke-linecap="round"/>
</g>
<defs>
<clipPath id="clip0">
<rect width="194" height="453" fill="white"/>
</clipPath>
</defs>
</svg>
