<svg width="13" height="13" viewBox="0 0 13 13" fill="none" xmlns="http://www.w3.org/2000/svg">
<g clip-path="url(#clip0)">
<path d="M7.93194 5.06714C7.77795 4.91224 7.6072 4.77493 7.42287 4.65772C6.93465 4.34509 6.36707 4.17896 5.78733 4.17896C4.98266 4.17746 4.2107 4.49718 3.64271 5.06714L0.887205 7.82482C0.320182 8.39293 0.00148491 9.16266 0.00097719 9.96532C-8.90244e-05 11.6403 1.35685 12.999 3.03182 13.0001C3.83524 13.0028 4.60649 12.6847 5.17428 12.1162L7.44887 9.84162C7.4902 9.80064 7.51327 9.74474 7.51294 9.68656C7.51226 9.56691 7.4147 9.4705 7.29505 9.47118H7.20841C6.73318 9.47286 6.2622 9.38159 5.822 9.20257C5.74089 9.16919 5.64768 9.18802 5.58589 9.25022L3.95034 10.8879C3.44246 11.3958 2.61904 11.3958 2.11117 10.8879C1.6033 10.3801 1.6033 9.55663 2.11117 9.04876L4.87751 6.28459C5.38498 5.77775 6.20706 5.77775 6.71453 6.28459C7.05653 6.60646 7.58999 6.60646 7.93197 6.28459C8.0791 6.13732 8.16831 5.942 8.18326 5.73434C8.19908 5.48619 8.10756 5.24317 7.93194 5.06714Z" fill="#91CCE5"/>
<path d="M12.111 0.888328C10.9266 -0.296109 9.00625 -0.296109 7.82181 0.888328L5.54937 3.15858C5.48698 3.22128 5.46898 3.31559 5.50388 3.39688C5.53838 3.47839 5.61901 3.53071 5.7075 3.52901H5.78765C6.26232 3.52815 6.73254 3.62012 7.1719 3.79981C7.25301 3.83319 7.34623 3.81435 7.40801 3.75216L9.03922 2.12311C9.5471 1.61523 10.3705 1.61523 10.8784 2.12311C11.3863 2.63098 11.3863 3.4544 10.8784 3.96228L8.84642 5.99207L8.82908 6.01157L8.11855 6.71778C7.61108 7.22461 6.789 7.22461 6.28153 6.71778C5.93953 6.39591 5.40607 6.39591 5.06409 6.71778C4.91602 6.86616 4.82673 7.06318 4.8128 7.27234C4.79696 7.52049 4.88847 7.76351 5.06409 7.93956C5.31483 8.19137 5.60819 8.39671 5.9306 8.54611C5.97609 8.56776 6.02158 8.5851 6.06707 8.6046C6.11256 8.6241 6.16021 8.63925 6.20571 8.65659C6.2512 8.67393 6.29885 8.68909 6.34434 8.70208L6.47216 8.73673C6.5588 8.75839 6.64547 8.77573 6.73427 8.79088C6.84125 8.80677 6.94898 8.8169 7.05705 8.82122H7.20868H7.22168L7.35166 8.80606C7.39931 8.80391 7.44914 8.79307 7.50547 8.79307H7.57912L7.72859 8.77141L7.79792 8.75841L7.92356 8.73242H7.94739C8.47951 8.59876 8.9654 8.32325 9.3533 7.93522L12.111 5.17756C13.2955 3.99312 13.2955 2.07277 12.111 0.888328Z" fill="#91CCE5"/>
</g>
<defs>
<clipPath id="clip0">
<rect width="13" height="13" fill="white"/>
</clipPath>
</defs>
</svg>
