<svg width="16" height="14" viewBox="0 0 16 14" fill="none" xmlns="http://www.w3.org/2000/svg">
<path fill-rule="evenodd" clip-rule="evenodd" d="M8.95947 0L2.47182 4.17021V10.1277L8.95947 14V0ZM0 4.17049H2.47149V10.1279H0V4.17049ZM12.9653 3.36417C13.625 3.90938 14.9463 5.50926 14.9463 7.44684C14.9463 9.37138 13.6389 10.7654 13.0002 11.2053L13.5674 12.0288C14.3703 11.4759 15.9463 9.81167 15.9463 7.44684C15.9463 5.09507 14.3843 3.23962 13.6023 2.59335L12.9653 3.36417ZM11.213 5.51426C11.4665 5.63644 12.1659 6.2246 12.1659 7.44684C12.1659 8.64973 11.4964 9.00167 11.313 9.04587L11.5473 10.018C12.1878 9.86365 13.1659 9.10353 13.1659 7.44684C13.1659 5.80951 12.2177 4.88845 11.6473 4.61347L11.213 5.51426Z" fill="#F1EEEA"/>
</svg>
