<svg width="178" height="235" viewBox="0 0 178 235" fill="none" xmlns="http://www.w3.org/2000/svg">
<path d="M177.394 174.141C177.394 166.624 175.916 159.18 173.046 152.235C170.175 145.29 165.967 138.979 160.663 133.664C155.359 128.348 149.062 124.132 142.131 121.255C135.201 118.378 127.773 116.897 120.271 116.897L120.271 174.141H177.394Z" fill="#FFFFFF"/>
<path d="M120.151 114.245C127.669 114.245 135.112 112.768 142.057 109.897C149.003 107.026 155.313 102.819 160.629 97.5143C165.944 92.21 170.161 85.9129 173.037 78.9824C175.914 72.052 177.395 64.624 177.395 57.1226L120.151 57.1226L120.151 114.245Z" fill="#FFFFFF"/>
<path d="M120.151 234.277C127.669 234.277 135.112 232.818 142.057 229.984C149.003 227.149 155.313 222.995 160.629 217.758C165.944 212.521 170.161 206.303 173.037 199.46C175.914 192.618 177.395 185.283 177.395 177.877L120.151 177.877V234.277Z" fill="#FFFFFF"/>
<path d="M59.2923 235C66.6989 235 74.0329 233.519 80.8757 230.643C87.7184 227.766 93.9359 223.549 99.1731 218.234C104.41 212.918 108.565 206.608 111.399 199.663C114.233 192.717 115.692 185.274 115.692 177.756L59.2923 177.756L59.2923 235Z" fill="#FFFFFF"/>
<path d="M116.536 57.1231C109.019 57.1231 101.575 58.5819 94.6298 61.4163C87.6847 64.2507 81.3742 68.4051 76.0586 73.6423C70.7431 78.8795 66.5265 85.097 63.6498 91.9398C60.773 98.7825 59.2924 106.117 59.2924 113.523L116.536 113.523L116.536 57.1231Z" fill="#FFFFFF"/>
<rect x="59.2924" y="116.897" width="56.4" height="56.4" fill="#FFFFFF"/>
<rect y="177.877" width="56.159" height="57.1231" fill="#FFFFFF"/>
</svg>
