<svg width="19" height="19" viewBox="0 0 19 19" fill="none" xmlns="http://www.w3.org/2000/svg">
<path d="M9.5 0C4.25329 0 0 4.25329 0 9.5C0 14.7467 4.25329 19 9.5 19C14.7467 19 19 14.7467 19 9.5C19 4.25329 14.7467 0 9.5 0ZM13.6345 13.7871C13.5137 13.9938 13.2963 14.109 13.073 14.1091C12.9617 14.1091 12.8489 14.0804 12.7459 14.0202C11.0387 13.0225 9.06651 12.8622 7.71232 12.9034C6.21228 12.949 5.11223 13.2451 5.1013 13.2481C4.75551 13.3426 4.39817 13.1391 4.30331 12.7934C4.2085 12.4477 4.41128 12.0905 4.75689 11.9953C4.80647 11.9817 5.99023 11.6602 7.63635 11.6059C8.60596 11.5739 9.53941 11.6415 10.4104 11.8067C11.5136 12.0159 12.5199 12.3833 13.4014 12.8985C13.7112 13.0795 13.8155 13.4774 13.6345 13.7871ZM14.8423 11.2787C14.6992 11.5235 14.4417 11.66 14.1772 11.6601C14.0453 11.6601 13.9117 11.6262 13.7896 11.5548C11.7675 10.373 9.43131 10.1832 7.82731 10.2319C6.05043 10.286 4.74738 10.6368 4.73445 10.6403C4.32495 10.752 3.90159 10.5112 3.78923 10.1017C3.67691 9.69211 3.91714 9.26915 4.32651 9.15634C4.38524 9.14017 5.78741 8.75928 7.73729 8.695C8.88591 8.65714 9.99156 8.73716 11.0232 8.93287C12.33 9.18078 13.5219 9.61587 14.5662 10.2261C14.9331 10.4405 15.0567 10.9118 14.8423 11.2787ZM15.5847 8.99796C15.423 8.99796 15.2591 8.95637 15.1093 8.86885C10.3018 6.05927 4.06562 7.72956 4.0032 7.7468C3.50058 7.88529 2.98098 7.5901 2.84254 7.08752C2.70406 6.58495 2.99924 6.06531 3.50182 5.92687C3.57384 5.90701 5.29376 5.43984 7.68549 5.36098C9.09445 5.3146 10.4506 5.4127 11.7161 5.65275C13.3189 5.95682 14.7811 6.49049 16.0618 7.23903C16.5119 7.50204 16.6635 8.0801 16.4005 8.53017C16.225 8.8305 15.9092 8.99796 15.5847 8.99796Z" fill="#2B2A2A"/>
</svg>
